<?xml version="1.0" encoding="UTF-8"?>
<svg version="1.1" xmlns="http://www.w3.org/2000/svg" width="96" height="96">
<path d="M0 0 C3.57894175 2.52631183 6.55917543 5.33876315 9 9 C9.66 8.67 10.32 8.34 11 8 C16.58393133 7.4900901 21.44052088 7.26129937 26.5625 9.6875 C30.77795715 13.68677986 32.04214501 16.30900789 32.3125 22.0625 C32.43352361 24.66547658 32.43352361 24.66547658 33 27 C35.75954128 29.33969988 35.75954128 29.33969988 39 31 C42.39090366 34.9263095 43.6746341 37.94972447 43.3828125 43.046875 C42.48006018 47.65275418 39.8534879 50.33072351 36.27159119 53.13952637 C32.57899767 55.23941369 30.49245586 55.50597842 26.27954102 55.51757812 C24.96119766 55.53018677 23.64285431 55.54279541 22.28456116 55.55578613 C20.85767072 55.54862514 19.43078519 55.54042086 18.00390625 55.53125 C16.52709193 55.53394782 15.05027934 55.53783265 13.57347107 55.54284668 C10.4842735 55.54873007 7.39553992 55.54021815 4.30639648 55.52148438 C0.36095183 55.49871477 -3.58340308 55.51181143 -7.52880764 55.53577423 C-10.57705277 55.55028123 -13.62504284 55.54560366 -16.67329597 55.53526306 C-18.1272501 55.53260822 -19.58122792 55.53582153 -21.03515434 55.54518127 C-35.23091902 55.61651362 -35.23091902 55.61651362 -41 51 C-44.48165167 46.77824953 -45.72638527 42.75826275 -45.4453125 37.27734375 C-44.64348519 33.17677076 -42.86664854 30.02275316 -40 27 C-37.6607889 25.55974193 -35.65026848 24.83145678 -33 24 C-33.03480469 23.3709375 -33.06960937 22.741875 -33.10546875 22.09375 C-33.32539376 15.13993062 -33.02292333 9.3832718 -28.23046875 4.01953125 C-19.87390852 -3.72986017 -10.20061722 -5.5814698 0 0 Z M-25.375 7.4375 C-28.53850398 12.42610243 -29.41770585 16.04769159 -29 22 C-28.08885464 25.32186171 -28.08885464 25.32186171 -27 28 C-28.8253125 28.0928125 -28.8253125 28.0928125 -30.6875 28.1875 C-33.97858008 28.61930838 -35.09828904 29.06901146 -37.9375 31.0625 C-40.5213876 34.74258234 -41.28932758 37.52857383 -41 42 C-39.74100446 45.92510376 -38.82087237 47.50404706 -35.28271484 49.64172363 C-31.76382415 51.09772158 -29.32911993 51.39105866 -25.5390625 51.41992188 C-24.27755371 51.43583374 -23.01604492 51.45174561 -21.71630859 51.46813965 C-20.35253964 51.46940686 -18.98876929 51.4695838 -17.625 51.46875 C-16.21305034 51.47585878 -14.80110354 51.48355882 -13.38916016 51.49182129 C-10.43709265 51.50523299 -7.48529247 51.50684937 -4.53320312 51.50097656 C-0.76015996 51.49507546 3.01159863 51.52570188 6.78439331 51.56609344 C9.69790492 51.59200554 12.61110829 51.59484494 15.52471924 51.59120178 C16.91533646 51.59288898 18.30596853 51.6024931 19.69647217 51.62034607 C28.29488052 52.01901408 28.29488052 52.01901408 35.8359375 48.58789062 C38.14185159 45.83036701 38.89555617 44.76592144 39.375 41.25 C38.8528401 36.7246142 37.15770622 35.2328897 34 32 C31.29120665 30.64560332 28.99066732 30.93498549 26 31 C26.33 30.505 26.66 30.01 27 29.5 C28.4107821 25.97304475 28.71777614 22.70258779 28 19 C26.2524257 15.97910019 24.16782234 13.58391117 21 12 C15.70317752 11.65266738 12.29906713 11.50700795 8 15 C8 15.66 8 16.32 8 17 C7.34 17 6.68 17 6 17 C5.85304687 16.40832031 5.70609375 15.81664062 5.5546875 15.20703125 C3.86051328 9.23847496 2.19890734 6.43127884 -3 3 C-11.10909266 -1.36643451 -19.2428452 1.1439727 -25.375 7.4375 Z " fill="#ECAD25" transform="translate(49,22)"/>
<path d="M0 0 C4.0743356 0.84881992 5.54405875 2.30225596 8 5.625 C8.625 8.625 8.625 8.625 8 11.625 C5.54405875 14.94774404 4.0743356 16.40118008 0 17.25 C-4.0743356 16.40118008 -5.54405875 14.94774404 -8 11.625 C-8.625 8.625 -8.625 8.625 -8 5.625 C-5.54405875 2.30225596 -4.0743356 0.84881992 0 0 Z M-2 4.625 C-2.66 5.285 -3.32 5.945 -4 6.625 C-3.67958603 9.22780568 -3.67958603 9.22780568 -3 11.625 C-0.60280568 12.30458603 -0.60280568 12.30458603 2 12.625 C2.66 11.965 3.32 11.305 4 10.625 C3.67958603 8.02219432 3.67958603 8.02219432 3 5.625 C0.60280568 4.94541397 0.60280568 4.94541397 -2 4.625 Z " fill="#F29D27" transform="translate(78,54.375)"/>
<path d="M0 0 C0 6.27 0 12.54 0 19 C-6 18 -6 18 -8.375 15.875 C-10.43923622 12.22288977 -10.59144304 10.1401013 -10 6 C-6.98803828 1.38165869 -5.57152397 0 0 0 Z " fill="#F3D88D" transform="translate(20,52)"/>
<path d="M0 0 C0 1.32 0 2.64 0 4 C-0.61488281 4.11214844 -1.22976562 4.22429688 -1.86328125 4.33984375 C-4.5077066 4.98513415 -6.63361352 5.64058649 -9 7 C-10.65559235 9.88195705 -11.40614041 12.7440112 -12 16 C-13.32 16 -14.64 16 -16 16 C-15.53498644 11.25686173 -15.03866331 7.74768475 -12 4 C-8.25054639 1.16006732 -4.79828924 -0.58161082 0 0 Z " fill="#E1CD21" transform="translate(38,25)"/>
<path d="M0 0 C0 1.32 0 2.64 0 4 C-0.61875 4.2475 -1.2375 4.495 -1.875 4.75 C-4.35068687 6.20628639 -4.95125002 7.37812506 -6 10 C-7.32 10 -8.64 10 -10 10 C-9.73727987 6.14677136 -9.42708562 4.43862847 -6.6875 1.625 C-4 0 -4 0 0 0 Z " fill="#E2C822" transform="translate(38,31)"/>
<path d="M0 0 C5.46835443 0.48607595 5.46835443 0.48607595 7.875 2.8125 C9 5 9 5 9 9 C7.68 9 6.36 9 5 9 C4.731875 8.360625 4.46375 7.72125 4.1875 7.0625 C3.11332248 4.66868314 3.11332248 4.66868314 0 4 C0 2.68 0 1.36 0 0 Z " fill="#E5BE24" transform="translate(66,36)"/>
</svg>
